<svg xmlns="http://www.w3.org/2000/svg" xmlns:xlink="http://www.w3.org/1999/xlink" viewBox="0 0 406.92 68.17">
  <defs>
    <style>
      .cls-1, .cls-13 {
        fill: none;
      }

      .cls-2, .cls-8 {
        font-size: 23px;
      }

      .cls-2 {
        fill: #f28b0c;
        font-family: Tahoma;
        letter-spacing: 0.01em;
      }

      .cls-3 {
        letter-spacing: 0em;
      }

      .cls-4 {
        letter-spacing: 0em;
      }

      .cls-5 {
        letter-spacing: 0.01em;
      }

      .cls-6 {
        letter-spacing: 0em;
      }

      .cls-7 {
        letter-spacing: -0.13em;
      }

      .cls-12, .cls-8 {
        fill: #fff;
      }

      .cls-8 {
        font-family: GoodDogPlain, GoodDog Plain;
      }

      .cls-9 {
        clip-path: url(#clip-path);
      }

      .cls-10 {
        fill: #ed9200;
      }

      .cls-11 {
        fill: #213b75;
      }

      .cls-13 {
        stroke: #fff;
        stroke-linecap: round;
        stroke-linejoin: round;
        stroke-width: 2px;
      }
    </style>
    <clipPath id="clip-path" transform="translate(-0.08 -0.08)">
      <rect class="cls-1" width="63" height="68.34"/>
    </clipPath>
  </defs>
  <title>Element 5</title>
  <g id="Ebene_2" data-name="Ebene 2">
    <g id="Ebene_1-2" data-name="Ebene 1">
      <g>
        <g>
          <text class="cls-2" transform="translate(76.68 29)">Kinde<tspan class="cls-3" x="57" y="0">r</tspan><tspan class="cls-4" x="65.29" y="0">dorf </tspan><tspan class="cls-5" x="113.86" y="0">S</tspan><tspan class="cls-4" x="126.84" y="0">chnec</tspan><tspan class="cls-6" x="186.39" y="0">k</tspan><tspan x="197.76" y="0">enmühle e.</tspan><tspan class="cls-7" x="312.43" y="0">V</tspan><tspan class="cls-4" x="323.17" y="0">.</tspan></text>
          <text class="cls-8" transform="translate(78.68 55)">Ferienlager, Klassenfahrten und mehr...</text>
        </g>
        <g class="cls-9">
          <path class="cls-10" d="M51.23,45.2c-1.4.06-2.09.91-3.24,1.2-2.86.71-5.36-1.41-8.25-1,1.46-3,1-8.6-1.83-9.77a39.41,39.41,0,0,0-.94-5c.5.24.85.83,1.41.83,1,0,2.19-1.65,2.3-2.45-1.27-.93-3.43-1-4.13-2.45.26-.25.85-.17,1.21-.32,0-1.35-.85-1.9-1.41-2.71a15.56,15.56,0,0,0,1.82-1.31c.44-.35,1.54-1,1.52-1.62s-.89-1.13-1.26-1.41-1.46-1.11-2-.78c-1.3.83-1.93,3-3,4a4.32,4.32,0,0,0-3.18.42c-.49-.48-.88-1-1.46-1.52S27.69,20,27.05,20s-1.09.7-1.41,1.1a4.31,4.31,0,0,0-.89,1.62,14.22,14.22,0,0,0,3.55,1.51,5,5,0,0,0-1.14,2.45c.48.28,1.32-.13,1.72.21a4,4,0,0,1-1.31,1.88C27.27,29.08,26,30,26,30.47s.73.77,1,1c.47.33.83.59,1.25.83-.39,1-.73,2-1.09,3-2.3,1.21-4.29,2.91-4,6.42.21,2.75,2.23,4,3.18,6-.71.44-1.18-.45-1.77-.94a15.37,15.37,0,0,0-1.36-1c-1.53-1-3.6-1.2-3.34-3.7,2.17-.06,1.6-3.91-.58-3-.44.19-.63.62-.89,1.1-.35-.41-.65-1.06-1.3-1.15a1.22,1.22,0,0,0-1.36.83c-.17.92.53,1.37.89,1.78a4.19,4.19,0,0,1,.83,1.3c.6,1.66-.38,2.38-1.2,3.29a3.1,3.1,0,0,0-.83,2c-.13,2.73,2.43,3.75,4.7,2.66.39-.19,1.45-1.3,1.77-.41-.24.6-.94.83-1.51,1.15s-1.34.61-1.41,1.2a4,4,0,0,0,2.35-.11c2.16-.46,4.73-1.33,7.21-1.15,1.19.09,1.79.82,3,.84,2,0,3.66-1,5.85-1.1,1.2,0,2.44.16,3.61.16a21,21,0,0,0,3.55-.26c3.54-.63,6.52-2.28,6.63-6.06M59.72,15a41.62,41.62,0,0,1,1.73,19.49,47.57,47.57,0,0,1-5.9,16.43,36.47,36.47,0,0,1-10.46,12,25.14,25.14,0,0,1-7.67,3.7,20.09,20.09,0,0,1-10.07,0c-5.67-1.61-9.79-5.33-13.13-9.45a65,65,0,0,1-8.45-14,59.1,59.1,0,0,1-4-12.73c-.13-.64-.33-1.49-.44-2.36a8.07,8.07,0,0,1-.17-2.57c.13-.4,1.89-1.2,2.28-1.46,3.38-2.21,7-6.22,5.62-12.29A12.32,12.32,0,0,0,6.6,6.88C7.83,5.17,9,3.35,10.27,1.73c5.28,3.45,11.17,7.09,20.47,6.12A49.91,49.91,0,0,0,46.32,3.23c1.6-.72,3.12-1.58,4.73-2.15h.11A33.52,33.52,0,0,1,59.72,15" transform="translate(-0.08 -0.08)"/>
          <path class="cls-11" d="M17.29,40.71a1.1,1.1,0,0,0,.1-.84c-1-.84-1.21,1.45-.1.84m1.82,2.66a2.73,2.73,0,0,0,.21-1.3,1.79,1.79,0,0,1-.89-.89,1.6,1.6,0,0,0,.68,2.19m-2.45,4.44c.32,1.58,3.22,1.06,3.08-.68-.07-.84-1-1.29-2-1.09a1.46,1.46,0,0,0-1.1,1.77M20.47,41c.67-.14.46-1.64-.47-1.31s-.18,1.44.47,1.31M31.65,24.78c0-.47-.5-.85-.89-1.2-.79-.7-1.57-1.27-2.46-1.93-.41-.31-.93-.88-1.41-.84-.66.05-1.2.89-1.41,1.62a11.29,11.29,0,0,0,2.88,1.46,7.77,7.77,0,0,0,3.29.89m-2,5.69c.9-1.16,2.06-2.58,2-4.07a.5.5,0,0,0-.63,0,22.78,22.78,0,0,0-4.07,4c.39.45,1,1.21,1.67,1.1.3-.05.75-.74,1-1.05m2.25-4.85c0,.89,1.71.84,1.51-.16-.06-.31-.34-.52-.89-.42-.38.07-.62.21-.62.58M36.66,42c.48-4.44-7.5-4.45-7.68-.62-.06,1.35,1,2.87,1.73,3.76.23.29.55.84.94.94.84.2,1.25-.39,1.93-.58-1.11-.73-2.91-2.35-2.87-3.92,0-1.2,1.89-1.9,3.18-1.41.39.15,1.27,1.12,1.1,1.68s-1.94.21-2.46,0a7,7,0,0,0-.21-1.05c-1.15.18-.79,1.56-.36,2.09a4.1,4.1,0,0,0,3.13,1.57c.5-.06.83-.72,1-1A3.48,3.48,0,0,0,36.66,42M37,35.12a13.93,13.93,0,0,0-.89-4.7,7.42,7.42,0,0,0-1.3-1.83c-.43-.48-1.43-1.65-2-1.3-1,.61-1.77,2.23-2.46,3.39a12.68,12.68,0,0,0-1.83,4c.76-.13,1.5-.28,2.3-.36a27.07,27.07,0,0,1,1-3.45A1.45,1.45,0,0,1,33,30.06c.75,0,1,1.1,1.2,1.82a23.36,23.36,0,0,1,.53,2.56c.86.12,1.41.54,2.24.68M38.8,20.5c0-.47-1.26-1.42-1.88-1.51a13.4,13.4,0,0,0-2.14,2.56,5.92,5.92,0,0,0-1.52,2.81c.49.3,1.1-.19,1.57-.52,1-.68,1.76-1.34,2.72-2.14.34-.28,1.23-.81,1.25-1.2m.42,22.82a7.3,7.3,0,0,0-1.1-6.06A8.14,8.14,0,0,0,31.75,35c-3.39.25-7.28,2.39-7.26,5.75a9.59,9.59,0,0,0,2.25,5.43c.24.33.8,1.17,1.3,1.25a3.56,3.56,0,0,0,2.41-.94,4.63,4.63,0,0,0-.89-1.3c-1.29-1.76-3-5.4-.58-7,2.92-2,7.22-.51,8.46,1.88a3.07,3.07,0,0,1,.37,1.78c-.17,1.5-1.18,2.5-1.67,3.91a2.93,2.93,0,0,0,2.29-.26,4.42,4.42,0,0,0,.79-2.14m-.79-12.53c.67,0,1.21-1,1.62-1.52a20.3,20.3,0,0,1-4.44-2.35c-.54-.38-1.15-1.05-1.72-.73,0,.52.41,1,.78,1.41a27,27,0,0,0,2.41,2.2c.35.29,1,1,1.35,1M43.6,48.54a1.85,1.85,0,0,0,1.52-.47,13.28,13.28,0,0,0-2.25-.62c-.7-.28-1.32-.84-1.93-1a9.21,9.21,0,0,0-2.35-.05,64.22,64.22,0,0,0-9.92,1.88c-1,.24-2.21.29-2.77,1.1,1.13.43,2.57,0,3.87,0s2.55.16,3.7,0a22.08,22.08,0,0,0,3.08-.78A13.74,13.74,0,0,1,40,48.23c1.15,0,2.31.32,3.6.31M48,46.4c1.15-.29,1.84-1.14,3.24-1.2-.11,3.78-3.09,5.43-6.63,6.06a21,21,0,0,1-3.55.26c-1.17,0-2.41-.2-3.61-.16-2.19.08-3.88,1.12-5.85,1.1-1.23,0-1.83-.75-3-.84-2.48-.18-5.05.69-7.21,1.15a4,4,0,0,1-2.35.11c.07-.59.87-.91,1.41-1.2s1.27-.55,1.51-1.15c-.32-.89-1.38.22-1.77.41-2.27,1.09-4.83.07-4.7-2.66a3.1,3.1,0,0,1,.83-2c.82-.91,1.8-1.63,1.2-3.29a4.19,4.19,0,0,0-.83-1.3c-.36-.41-1.06-.86-.89-1.78A1.22,1.22,0,0,1,17.13,39c.65.09.95.74,1.3,1.15.26-.48.45-.91.89-1.1,2.18-.93,2.75,2.92.58,3-.26,2.5,1.81,2.71,3.34,3.7a15.37,15.37,0,0,1,1.36,1c.59.49,1.06,1.38,1.77.94-.95-2-3-3.26-3.18-6-.27-3.51,1.72-5.21,4-6.42.36-1,.7-2,1.09-3-.42-.24-.78-.5-1.25-.83-.31-.23-1-.61-1-1s1.26-1.39,1.56-1.67a4,4,0,0,0,1.31-1.88c-.4-.34-1.24.07-1.72-.21a5,5,0,0,1,1.14-2.45,14.22,14.22,0,0,1-3.55-1.51,4.31,4.31,0,0,1,.89-1.62c.32-.4.9-1.09,1.41-1.1s1.34.8,1.78,1.2,1,1,1.46,1.52a4.32,4.32,0,0,1,3.18-.42c1.05-1,1.68-3.14,3-4,.52-.33,1.48.4,2,.78s1.24.87,1.26,1.41-1.08,1.27-1.52,1.62a15.56,15.56,0,0,1-1.82,1.31c.56.81,1.38,1.36,1.41,2.71-.36.15-.95.07-1.21.32C37.25,28,39.41,28,40.68,29c-.11.8-1.34,2.45-2.3,2.45-.56,0-.91-.59-1.41-.83a39.41,39.41,0,0,1,.94,5c2.84,1.17,3.29,6.73,1.83,9.77,2.89-.37,5.39,1.75,8.25,1" transform="translate(-0.08 -0.08)"/>
          <path class="cls-12" d="M45.12,48.07a1.85,1.85,0,0,1-1.52.47c-1.29,0-2.45-.32-3.6-.31a13.74,13.74,0,0,0-3.45.42,22.08,22.08,0,0,1-3.08.78c-1.15.11-2.33,0-3.7,0s-2.74.43-3.87,0c.56-.81,1.75-.86,2.77-1.1a64.22,64.22,0,0,1,9.92-1.88,9.21,9.21,0,0,1,2.35.05c.61.16,1.23.72,1.93,1a13.28,13.28,0,0,1,2.25.62" transform="translate(-0.08 -0.08)"/>
          <path class="cls-12" d="M40.05,29.27c-.41.53-.95,1.52-1.62,1.52-.39,0-1-.7-1.35-1a25.53,25.53,0,0,1-2.41-2.19c-.37-.4-.82-.89-.78-1.41.57-.32,1.18.35,1.72.73a20.3,20.3,0,0,0,4.44,2.35" transform="translate(-0.08 -0.08)"/>
          <path class="cls-12" d="M38.12,37.26a7.3,7.3,0,0,1,1.1,6.06,4.42,4.42,0,0,1-.79,2.14,2.93,2.93,0,0,1-2.29.26c.49-1.41,1.5-2.41,1.67-3.91A3.07,3.07,0,0,0,37.44,40C36.2,37.64,31.9,36.19,29,38.15c-2.38,1.6-.71,5.24.58,7a4.63,4.63,0,0,1,.89,1.3,3.56,3.56,0,0,1-2.41.94c-.5-.08-1.06-.92-1.3-1.25a9.59,9.59,0,0,1-2.25-5.43c0-3.36,3.87-5.5,7.26-5.75a8.14,8.14,0,0,1,6.37,2.3" transform="translate(-0.08 -0.08)"/>
          <path class="cls-12" d="M36.92,19c.62.09,1.9,1,1.88,1.51s-.91.92-1.25,1.2c-1,.8-1.74,1.46-2.72,2.14-.47.33-1.08.82-1.57.52a5.92,5.92,0,0,1,1.52-2.81A13.4,13.4,0,0,1,36.92,19" transform="translate(-0.08 -0.08)"/>
          <path class="cls-12" d="M36.08,30.42a13.93,13.93,0,0,1,.89,4.7c-.83-.14-1.38-.56-2.24-.68a22.88,22.88,0,0,0-.53-2.56c-.19-.72-.45-1.78-1.2-1.82a1.45,1.45,0,0,0-1.15.78,27.07,27.07,0,0,0-1,3.45c-.8.08-1.54.23-2.3.36a12.68,12.68,0,0,1,1.83-4c.69-1.16,1.49-2.78,2.46-3.39.55-.35,1.55.82,2,1.3a7.42,7.42,0,0,1,1.3,1.83" transform="translate(-0.08 -0.08)"/>
          <path class="cls-12" d="M29,41.34c.18-3.83,8.16-3.82,7.68.62a3.48,3.48,0,0,1-.58,1.46c-.16.28-.49.94-1,1A4.1,4.1,0,0,1,32,42.85c-.43-.53-.79-1.91.36-2.09a7,7,0,0,1,.21,1.05c.52.21,2.24.71,2.46,0s-.71-1.53-1.1-1.68c-1.29-.49-3.15.21-3.18,1.41,0,1.57,1.76,3.19,2.87,3.92-.68.19-1.09.78-1.93.58-.39-.1-.71-.65-.94-.94-.7-.89-1.79-2.41-1.73-3.76" transform="translate(-0.08 -0.08)"/>
          <path class="cls-12" d="M33.42,25.46c.2,1-1.51,1.05-1.51.16,0-.37.24-.51.62-.58.55-.1.83.11.89.42" transform="translate(-0.08 -0.08)"/>
          <path class="cls-12" d="M31.7,26.4c0,1.49-1.14,2.91-2,4.07-.24.31-.69,1-1,1.05-.65.11-1.28-.65-1.67-1.1a22.78,22.78,0,0,1,4.07-4,.5.5,0,0,1,.63,0" transform="translate(-0.08 -0.08)"/>
          <path class="cls-12" d="M30.76,23.58c.39.35.91.73.89,1.2a7.77,7.77,0,0,1-3.29-.89,11.29,11.29,0,0,1-2.88-1.46c.21-.73.75-1.57,1.41-1.62.48,0,1,.53,1.41.84.89.66,1.67,1.23,2.46,1.93" transform="translate(-0.08 -0.08)"/>
          <path class="cls-12" d="M20,39.66c.93-.33,1.14,1.17.47,1.31s-1.28-1-.47-1.31" transform="translate(-0.08 -0.08)"/>
          <path class="cls-12" d="M17.08,47c-.12,1.09,1.73,1.2,1.67,0,0-.54-.51-.78-1.1-.63-.44.12-.55.37-.57.58m2.66.1c.14,1.74-2.76,2.26-3.08.68A1.46,1.46,0,0,1,17.76,46c1-.2,1.91.25,2,1.09" transform="translate(-0.08 -0.08)"/>
          <path class="cls-10" d="M19.32,42.07a2.73,2.73,0,0,1-.21,1.3,1.6,1.6,0,0,1-.68-2.19,1.79,1.79,0,0,0,.89.89" transform="translate(-0.08 -0.08)"/>
          <path class="cls-11" d="M18.75,47.08c.06,1.15-1.79,1-1.67,0,0-.21.13-.46.57-.58.59-.15,1.07.09,1.1.63" transform="translate(-0.08 -0.08)"/>
          <path class="cls-12" d="M17.39,39.87a1.1,1.1,0,0,1-.1.84c-1.11.61-.89-1.68.1-.84" transform="translate(-0.08 -0.08)"/>
          <path class="cls-13" d="M51.05,1.08h.11A33.52,33.52,0,0,1,59.72,15a41.62,41.62,0,0,1,1.73,19.49,47.57,47.57,0,0,1-5.9,16.43,36.47,36.47,0,0,1-10.46,12,25.14,25.14,0,0,1-7.67,3.7,20.09,20.09,0,0,1-10.07,0c-5.67-1.61-9.79-5.33-13.13-9.45a65,65,0,0,1-8.45-14,59.1,59.1,0,0,1-4-12.73c-.13-.64-.33-1.49-.44-2.36a8.07,8.07,0,0,1-.17-2.57c.13-.4,1.89-1.2,2.28-1.46,3.38-2.21,7-6.22,5.62-12.29A12.32,12.32,0,0,0,6.6,6.88C7.83,5.17,9,3.35,10.27,1.73c5.28,3.45,11.16,7.09,20.47,6.12A49.91,49.91,0,0,0,46.32,3.23C47.92,2.51,49.44,1.65,51.05,1.08Z" transform="translate(-0.08 -0.08)"/>
          <path class="cls-12" d="M19.46,56.57l-.11-.13a.19.19,0,0,1-.06-.12.13.13,0,0,1,0-.08,1.38,1.38,0,0,1,.71-.42l.83-.18h.05a.27.27,0,0,1,.16.06.17.17,0,0,1,.08.14c0,.09-.07.15-.2.18a2.62,2.62,0,0,1-.5.1,1.49,1.49,0,0,0-.47.13c-.06,0-.08.06-.08.09v0a2.25,2.25,0,0,0,.44.42,5.37,5.37,0,0,1,.48.36.68.68,0,0,1,.23.47.55.55,0,0,1,0,.17.71.71,0,0,1-.37.45,1.31,1.31,0,0,1-.61.14,1.46,1.46,0,0,1-.6-.12.2.2,0,0,1-.13-.18.34.34,0,0,1,.07-.19.47.47,0,0,1,.17-.15.14.14,0,0,1,.12.07.3.3,0,0,0,.09.1A.91.91,0,0,1,20,58l.15,0a.38.38,0,0,0,.19,0l.18-.08a.19.19,0,0,0,.07-.16.27.27,0,0,0,0-.12,2.8,2.8,0,0,0-.57-.5,2.77,2.77,0,0,1-.57-.5" transform="translate(-0.08 -0.08)"/>
          <path class="cls-12" d="M21.21,57.26a1.12,1.12,0,0,1,.35-.66l.32-.27a.64.64,0,0,1,.38-.14.35.35,0,0,1,.17,0,.09.09,0,0,1,.06.1.13.13,0,0,1,0,.06.37.37,0,0,1-.22.24l-.31.15a.78.78,0,0,0-.34.52.63.63,0,0,0,.09.39.45.45,0,0,0,.18.15l.22.07h.08a.49.49,0,0,0,.25-.12.45.45,0,0,1,.23-.12c.07,0,.1,0,.1.09a.41.41,0,0,1-.07.23.59.59,0,0,1-.52.26,1.41,1.41,0,0,1-.42-.07.71.71,0,0,1-.41-.29.88.88,0,0,1-.14-.49.76.76,0,0,1,0-.15" transform="translate(-0.08 -0.08)"/>
          <path class="cls-12" d="M22.92,57a2,2,0,0,0,0-.21c0-.1,0-.17,0-.22A.54.54,0,0,1,23,56.3a.2.2,0,0,1,.2-.11l.1,0a.22.22,0,0,1,.06.18,4.54,4.54,0,0,0,0,.57,1.6,1.6,0,0,0,0,.39c.17-.3.35-.44.55-.44l.16,0a5.94,5.94,0,0,1,.19,1.14c0,.06,0,.13,0,.2a.13.13,0,0,1-.07.08.33.33,0,0,1-.13,0,.18.18,0,0,1-.11,0,.75.75,0,0,1-.11-.44v-.17a1,1,0,0,0-.08-.42,2.59,2.59,0,0,0-.46.69.24.24,0,0,1-.11.08.17.17,0,0,1-.12,0l-.09,0s-.06,0-.06-.05,0-.29,0-.52,0-.4,0-.52" transform="translate(-0.08 -0.08)"/>
          <path class="cls-12" d="M24.39,57.44a2,2,0,0,0,0-.22c0-.1,0-.17,0-.22a.62.62,0,0,1,0-.26.15.15,0,0,1,.16-.1.17.17,0,0,1,.18.12.35.35,0,0,1,0,.06.53.53,0,0,1,0,.13.83.83,0,0,0,0,.13s0,0,0,.05a2.36,2.36,0,0,1,.19-.29.36.36,0,0,1,.27-.14l.11,0a1.51,1.51,0,0,1,.2.62c0,.07,0,.29,0,.66,0,.12,0,.2-.06.22l-.18,0a.1.1,0,0,1-.11-.07c0-.11,0-.29,0-.53a2.27,2.27,0,0,0-.05-.52,1.39,1.39,0,0,0-.22.41,4.08,4.08,0,0,1-.19.44.17.17,0,0,1-.16.09.14.14,0,0,1-.15-.13.9.9,0,0,1,0-.25c0-.19,0-.27,0-.25" transform="translate(-0.08 -0.08)"/>
          <path class="cls-12" d="M26.3,57.38c.25,0,.41-.1.46-.27a.19.19,0,0,0,0-.07.15.15,0,0,0-.1-.14.36.36,0,0,0-.2-.06.24.24,0,0,0-.15,0q-.12.06-.12.27c0,.15,0,.22.09.23m-.46-.22a.63.63,0,0,1,.17-.48.56.56,0,0,1,.44-.2.74.74,0,0,1,.52.22.7.7,0,0,1,.22.52c0,.08-.13.17-.32.28a3,3,0,0,0-.39.25c-.05,0-.07,0-.07.07a.14.14,0,0,0,.09.12.32.32,0,0,0,.17.06,1,1,0,0,0,.4-.14.18.18,0,0,1,.08.16.2.2,0,0,1,0,.15.16.16,0,0,1-.13.08l-.35,0a.75.75,0,0,1-.26,0,1.11,1.11,0,0,1-.52-1.09" transform="translate(-0.08 -0.08)"/>
          <path class="cls-12" d="M27.25,57.26a1.12,1.12,0,0,1,.35-.66l.32-.27a.64.64,0,0,1,.37-.14.37.37,0,0,1,.18,0,.09.09,0,0,1,.06.1.13.13,0,0,1,0,.06.37.37,0,0,1-.22.24l-.31.15a.78.78,0,0,0-.34.52.63.63,0,0,0,.09.39.45.45,0,0,0,.18.15l.22.07h.08a.49.49,0,0,0,.25-.12.45.45,0,0,1,.23-.12c.07,0,.1,0,.1.09a.41.41,0,0,1-.07.23.59.59,0,0,1-.52.26,1.41,1.41,0,0,1-.42-.07.71.71,0,0,1-.41-.29.88.88,0,0,1-.14-.49.76.76,0,0,1,0-.15" transform="translate(-0.08 -0.08)"/>
          <path class="cls-12" d="M28.89,56.68a1.87,1.87,0,0,0,0-.32c0-.17,0-.27,0-.33a.7.7,0,0,1,0-.27.26.26,0,0,1,.26-.13l.09,0a.11.11,0,0,1,.05.09c0,.11,0,.32,0,.63s0,.46,0,.62a.16.16,0,0,0,.1,0l.24-.19a.45.45,0,0,1,.26-.1.35.35,0,0,1,.19.06s.05,0,.05.07,0,.1-.11.14l-.22.13a.83.83,0,0,0-.22.16,10.45,10.45,0,0,1,.84.73.09.09,0,0,1,0,.07.15.15,0,0,1-.08.12.21.21,0,0,1-.17.08.13.13,0,0,1-.12-.06c-.07-.07-.29-.26-.68-.58h0s0,0,0,0a1.33,1.33,0,0,0,0,.27.94.94,0,0,1,0,.27c0,.1-.08.15-.2.15s-.11,0-.12-.06a2.39,2.39,0,0,1-.17-1c0-.14,0-.36,0-.67" transform="translate(-0.08 -0.08)"/>
          <path class="cls-12" d="M31,57.38c.25,0,.4-.1.46-.27a.17.17,0,0,0,0-.07.15.15,0,0,0-.09-.14.37.37,0,0,0-.21-.06.2.2,0,0,0-.14,0c-.09,0-.13.13-.13.27s0,.22.1.23m-.47-.22a.67.67,0,0,1,.17-.48.59.59,0,0,1,.45-.2.74.74,0,0,1,.51.22.67.67,0,0,1,.22.52c0,.08-.13.17-.32.28a4,4,0,0,0-.39.25s-.07,0-.07.07,0,.09.1.12a.29.29,0,0,0,.16.06,1,1,0,0,0,.41-.14.21.21,0,0,1,.08.16.25.25,0,0,1,0,.15.17.17,0,0,1-.13.08l-.35,0a.71.71,0,0,1-.26,0,1.1,1.1,0,0,1-.53-1.09" transform="translate(-0.08 -0.08)"/>
          <path class="cls-12" d="M32.05,57.44a2,2,0,0,0,0-.22A2,2,0,0,1,32,57a.62.62,0,0,1,0-.26.15.15,0,0,1,.16-.1.17.17,0,0,1,.18.12v.06a.4.4,0,0,1,0,.13.34.34,0,0,0,0,.13s0,0,0,.05a2.36,2.36,0,0,1,.19-.29.36.36,0,0,1,.27-.14l.11,0a1.51,1.51,0,0,1,.2.62c0,.07,0,.29,0,.66,0,.12,0,.2-.06.22l-.18,0a.1.1,0,0,1-.11-.07c0-.11,0-.29,0-.53a3,3,0,0,0,0-.52,1.39,1.39,0,0,0-.22.41,4.08,4.08,0,0,1-.19.44.18.18,0,0,1-.16.09.16.16,0,0,1-.16-.13,1.78,1.78,0,0,1,0-.25c0-.19,0-.27,0-.25" transform="translate(-0.08 -0.08)"/>
          <path class="cls-12" d="M33.47,57c0-.28.1-.41.28-.41h.12a.16.16,0,0,1,.12.17s0,.07,0,.13A.88.88,0,0,0,34,57a.29.29,0,0,0,0,.14.78.78,0,0,0,.18-.27l.17-.28a.31.31,0,0,1,.24-.12.4.4,0,0,1,.15,0l.09.08a2.43,2.43,0,0,1,0,.25,1,1,0,0,0,0,.24l.29-.32a.52.52,0,0,1,.36-.18.45.45,0,0,1,.16,0,.22.22,0,0,1,.08.15,1,1,0,0,0,0,.17,4.8,4.8,0,0,1,0,.62,2.48,2.48,0,0,1-.15.89c0,.09-.1.13-.22.13a.45.45,0,0,1-.19-.05s0,0,0,0a.17.17,0,0,1,0-.1,2,2,0,0,0,.13-.76,3.08,3.08,0,0,0,0-.51s0,0,0,0-.06,0-.09.08a4.64,4.64,0,0,0-.4.86.28.28,0,0,1-.12.12.37.37,0,0,1-.17.05.16.16,0,0,1-.15-.08.46.46,0,0,1,0-.2,1.75,1.75,0,0,1,0-.25,1.29,1.29,0,0,0,0-.25.58.58,0,0,0,0-.19l-.21.45a3.37,3.37,0,0,1-.23.44.24.24,0,0,1-.2.09c-.1,0-.16,0-.19-.1a1.44,1.44,0,0,1,0-.24,1.3,1.3,0,0,1,0-.28v-.28a1,1,0,0,0,0-.16c0-.08,0-.13,0-.16" transform="translate(-0.08 -0.08)"/>
          <path class="cls-12" d="M37.3,55.62a.17.17,0,0,1,.08.16.35.35,0,0,1-.09.23.31.31,0,0,1-.22.11.2.2,0,0,1-.11,0,.25.25,0,0,1-.12-.22.32.32,0,0,1,.08-.21.29.29,0,0,1,.21-.09.3.3,0,0,1,.17,0m-1.11,0a.28.28,0,0,1,.2-.08.29.29,0,0,1,.29.18.22.22,0,0,1,0,.12.37.37,0,0,1-.06.21.2.2,0,0,1-.17.09H36.4a.37.37,0,0,1-.15-.06.4.4,0,0,1-.14-.27.25.25,0,0,1,.08-.18m-.09,1.24a1.77,1.77,0,0,1,0-.23.26.26,0,0,1,.09-.18.36.36,0,0,1,.15,0c.14,0,.22.05.22.15l0,.42a1.78,1.78,0,0,0,0,.42l.06.3c0,.12.09.18.14.18h0a.84.84,0,0,0,.36-.74,1,1,0,0,0-.14-.51A.42.42,0,0,1,37,56.4c0-.08.06-.12.17-.12a.34.34,0,0,1,.29.19.65.65,0,0,1,.13.35,2,2,0,0,1-.1.79.91.91,0,0,1-.48.56.79.79,0,0,1-.25,0c-.21,0-.38-.14-.49-.42a2.12,2.12,0,0,1-.14-.8.81.81,0,0,1,0-.16" transform="translate(-0.08 -0.08)"/>
          <path class="cls-12" d="M37.71,57a2,2,0,0,0,0-.21,2,2,0,0,1,0-.22.68.68,0,0,1,.05-.27.2.2,0,0,1,.2-.11l.1,0a.22.22,0,0,1,.06.18,4.54,4.54,0,0,0-.05.57,1.6,1.6,0,0,0,.05.39c.17-.3.35-.44.55-.44l.16,0A5.94,5.94,0,0,1,39,58.08c0,.06,0,.13,0,.2a.13.13,0,0,1-.07.08.33.33,0,0,1-.13,0,.18.18,0,0,1-.11,0,.75.75,0,0,1-.11-.44v-.17a1,1,0,0,0-.08-.42A2.59,2.59,0,0,0,38,58a.21.21,0,0,1-.1.08.2.2,0,0,1-.13,0l-.09,0s-.05,0-.05-.05,0-.29,0-.52,0-.4,0-.52" transform="translate(-0.08 -0.08)"/>
          <path class="cls-12" d="M39.24,56.8a2.31,2.31,0,0,0,0-.39,2.23,2.23,0,0,1,0-.36.61.61,0,0,1,.06-.28.24.24,0,0,1,.23-.14.17.17,0,0,1,.19.18.34.34,0,0,1,0,.09.32.32,0,0,0,0,.08v.92a2.51,2.51,0,0,0,0,.39c0,.2,0,.33,0,.39a1.39,1.39,0,0,1-.11.58.18.18,0,0,1-.17.11.33.33,0,0,1-.16,0,.17.17,0,0,1-.08-.16s0,0,0-.07a2.81,2.81,0,0,0,.09-.64c0-.22,0-.44,0-.65" transform="translate(-0.08 -0.08)"/>
          <path class="cls-12" d="M40.4,57.38c.25,0,.41-.1.46-.27a.19.19,0,0,0,0-.07.15.15,0,0,0-.1-.14.36.36,0,0,0-.2-.06.24.24,0,0,0-.15,0q-.12.06-.12.27c0,.15,0,.22.09.23m-.47-.22a.68.68,0,0,1,.18-.48.56.56,0,0,1,.44-.2.74.74,0,0,1,.52.22.7.7,0,0,1,.22.52c0,.08-.13.17-.32.28a2.32,2.32,0,0,0-.39.25s-.07,0-.07.07a.14.14,0,0,0,.09.12.32.32,0,0,0,.17.06,1,1,0,0,0,.4-.14.18.18,0,0,1,.08.16.2.2,0,0,1,0,.15.16.16,0,0,1-.13.08l-.35,0a.75.75,0,0,1-.26,0,1.14,1.14,0,0,1-.53-1.09" transform="translate(-0.08 -0.08)"/>
          <path class="cls-12" d="M42.64,57.38c.25,0,.41-.1.46-.27a.17.17,0,0,0,0-.07A.15.15,0,0,0,43,56.9a.37.37,0,0,0-.21-.06.23.23,0,0,0-.14,0c-.09,0-.13.13-.13.27s0,.22.1.23m-.47-.22a.72.72,0,0,1,.17-.48.59.59,0,0,1,.45-.2.77.77,0,0,1,.74.74c0,.08-.14.17-.32.28a2.32,2.32,0,0,0-.39.25s-.08,0-.08.07,0,.09.1.12A.32.32,0,0,0,43,58a1,1,0,0,0,.41-.14.21.21,0,0,1,.08.16.25.25,0,0,1-.05.15.16.16,0,0,1-.13.08l-.35,0a.71.71,0,0,1-.26,0c-.34-.16-.51-.52-.53-1.09" transform="translate(-0.08 -0.08)"/>
          <path class="cls-12" d="M44.12,57.75a.33.33,0,0,1,.08.26.34.34,0,0,1-.12.3l-.14,0a.23.23,0,0,1-.19-.09.43.43,0,0,1-.1-.23.24.24,0,0,1,.08-.24.25.25,0,0,1,.21-.08.35.35,0,0,1,.18,0" transform="translate(-0.08 -0.08)"/>
          <path class="cls-12" d="M45.12,58.37c-.1,0-.16,0-.17-.07a1,1,0,0,0-.16-.33,1.61,1.61,0,0,1-.15-.3l-.24-.6a1.64,1.64,0,0,1-.14-.62v-.1a.21.21,0,0,1,.1-.12.27.27,0,0,1,.17-.07.11.11,0,0,1,.11.07,4.65,4.65,0,0,1,.18.64,1.84,1.84,0,0,0,.26.64,4.07,4.07,0,0,0,.25-.87,7.94,7.94,0,0,1,.21-.87s0-.07.1-.1a.47.47,0,0,1,.16,0c.11,0,.15,0,.14.16a16.15,16.15,0,0,1-.38,1.63,7,7,0,0,0-.17.8.17.17,0,0,1-.09.1.41.41,0,0,1-.18,0" transform="translate(-0.08 -0.08)"/>
          <path class="cls-12" d="M46.53,57.75a.3.3,0,0,1,.09.26.32.32,0,0,1-.13.3.35.35,0,0,1-.14,0,.25.25,0,0,1-.19-.09.5.5,0,0,1-.09-.23.24.24,0,0,1,.07-.24.28.28,0,0,1,.21-.08.35.35,0,0,1,.18,0" transform="translate(-0.08 -0.08)"/>
          <path class="cls-12" d="M25.54,14.68a12.61,12.61,0,0,1-.08-1.53.17.17,0,0,1,.09-.13.29.29,0,0,1,.18-.07c.13,0,.2.08.2.25a.82.82,0,0,1,0,.14v.15c0,.13,0,.2.07.2a.26.26,0,0,0,.16-.09l.23-.21a.44.44,0,0,1,.24-.14.29.29,0,0,1,.16.06.17.17,0,0,1,.08.12,0,0,0,0,1,0,0,1.07,1.07,0,0,1-.38.33,3.51,3.51,0,0,0-.43.27v0a.4.4,0,0,0,.1.18l.14.19.37.37a1,1,0,0,1,.26.42s0,.07-.07.11a.35.35,0,0,1-.18.05.17.17,0,0,1-.13-.05,1.59,1.59,0,0,1-.3-.34L26,14.67a.5.5,0,0,0,0,.12,3.59,3.59,0,0,0,.13.77.31.31,0,0,1,0,.27.2.2,0,0,1-.19.13.27.27,0,0,1-.12,0c-.06,0-.1-.08-.1-.14a8.84,8.84,0,0,0-.11-1.11" transform="translate(-0.08 -0.08)"/>
          <path class="cls-12" d="M27.21,13.65a.13.13,0,0,1,0-.1q0-.17.09-.21a.33.33,0,0,1,.19-.06.3.3,0,0,1,.16.05.17.17,0,0,1,.06.14.31.31,0,0,1,0,.15.57.57,0,0,1-.1.11l-.12,0a.25.25,0,0,1-.21-.11m-.11,1a1.05,1.05,0,0,1,.08-.5.21.21,0,0,1,.21-.12l.12,0c.09,0,.13.09.13.15a.06.06,0,0,1,0,.06.52.52,0,0,0-.08.29.94.94,0,0,1,0,.27.59.59,0,0,0,0,.14,1.49,1.49,0,0,0,0,.17c0,.08,0,.14,0,.18a.49.49,0,0,1,0,.12,0,0,0,0,1,0,.05l-.17,0a.19.19,0,0,1-.18-.1,1.42,1.42,0,0,1,0-.31,2.3,2.3,0,0,1,0-.23c0-.1,0-.17,0-.22" transform="translate(-0.08 -0.08)"/>
          <path class="cls-12" d="M27.91,14.79a2.13,2.13,0,0,0,0-.22,2,2,0,0,1,0-.22.7.7,0,0,1,0-.27.15.15,0,0,1,.16-.1.16.16,0,0,1,.18.12s0,0,0,.06a1.05,1.05,0,0,1,0,.13.5.5,0,0,0,0,.14s0,0,0,.05l.2-.3a.36.36,0,0,1,.27-.14l.12,0a1.61,1.61,0,0,1,.2.63c0,.07,0,.3,0,.67,0,.13,0,.21-.06.23l-.18,0c-.07,0-.1,0-.11-.07a4.64,4.64,0,0,1,0-.54,4.79,4.79,0,0,0-.05-.53,1.2,1.2,0,0,0-.23.41,3.68,3.68,0,0,1-.19.45.19.19,0,0,1-.17.1c-.08,0-.13,0-.16-.14a.93.93,0,0,1,0-.25c0-.19,0-.27,0-.26" transform="translate(-0.08 -0.08)"/>
          <path class="cls-12" d="M29.79,14.7a.43.43,0,0,0,.14.25.35.35,0,0,0,.25.1h.1v-.15a2,2,0,0,1,0-.29c0-.13,0-.23,0-.29a.75.75,0,0,0-.37.09.28.28,0,0,0-.17.3m-.44.06a.53.53,0,0,1,.19-.41,1.72,1.72,0,0,1,.41-.26,2,2,0,0,0,.4-.22.34.34,0,0,0,.08-.21,1.15,1.15,0,0,1,.05-.26.27.27,0,0,1,.23-.15h.06c.1,0,.15.1.13.17a3.41,3.41,0,0,0-.2,1.19,5.85,5.85,0,0,0,.09,1,.1.1,0,0,1-.06.07.17.17,0,0,1-.11,0c-.07,0-.12,0-.17-.13s-.09-.14-.12-.15H30.1a.48.48,0,0,1-.27-.08,2.81,2.81,0,0,1-.32-.24.49.49,0,0,1-.16-.37" transform="translate(-0.08 -0.08)"/>
          <path class="cls-12" d="M31.47,14.73c.26,0,.41-.1.47-.27a.19.19,0,0,0,0-.07.19.19,0,0,0-.1-.15.38.38,0,0,0-.21-.05.33.33,0,0,0-.15,0c-.09,0-.13.13-.13.27s0,.24.1.24M31,14.51a.69.69,0,0,1,.18-.49.56.56,0,0,1,.45-.2.75.75,0,0,1,.75.75c0,.08-.13.18-.32.29l-.4.25s-.07.05-.07.07,0,.09.09.13a.32.32,0,0,0,.17,0,1,1,0,0,0,.42-.13.19.19,0,0,1,.08.16.25.25,0,0,1-.05.15.17.17,0,0,1-.14.08l-.35.05a.76.76,0,0,1-.27-.05Q31,15.38,31,14.51" transform="translate(-0.08 -0.08)"/>
          <path class="cls-12" d="M32.57,14.39a1.64,1.64,0,0,0-.07-.23.65.65,0,0,1-.06-.23.21.21,0,0,1,.08-.17.27.27,0,0,1,.17-.08.24.24,0,0,1,.19.11A.38.38,0,0,1,33,14v.06a.56.56,0,0,0,.27-.18.39.39,0,0,1,.27-.16h.09q.18.08.18.15a.11.11,0,0,1,0,.07,1.66,1.66,0,0,1-.3.3,1.49,1.49,0,0,0-.31.32.27.27,0,0,0,0,.15.24.24,0,0,1,0,.15.17.17,0,0,0,0,.1.34.34,0,0,0,.07.18.28.28,0,0,1,.06.18.33.33,0,0,1-.1.26.21.21,0,0,1-.2.1.24.24,0,0,1-.23-.27,7.94,7.94,0,0,0-.07-1.07" transform="translate(-0.08 -0.08)"/>
          <path class="cls-12" d="M34.28,14.7a.49.49,0,0,0,.14.25.36.36,0,0,0,.25.1h.1v-.15a2,2,0,0,1,0-.29,2.16,2.16,0,0,0,0-.29.79.79,0,0,0-.38.09.29.29,0,0,0-.17.3m-.44.06a.53.53,0,0,1,.19-.41,2.28,2.28,0,0,1,.41-.26,2.63,2.63,0,0,0,.41-.22.54.54,0,0,0,.08-.21,1.4,1.4,0,0,1,0-.26.28.28,0,0,1,.23-.15h.07c.1,0,.14.1.12.17a3.42,3.42,0,0,0-.19,1.19,5.85,5.85,0,0,0,.09,1,.1.1,0,0,1-.06.07.19.19,0,0,1-.11,0,.21.21,0,0,1-.18-.13.45.45,0,0,0-.11-.15H34.6a.46.46,0,0,1-.27-.08,2.37,2.37,0,0,1-.33-.24.52.52,0,0,1-.16-.37" transform="translate(-0.08 -0.08)"/>
          <path class="cls-12" d="M36,14.69h.07c.13,0,.19-.08.19-.24a.55.55,0,0,0-.15-.37h0s-.11.05-.17.14a.43.43,0,0,0-.1.26c0,.12.06.18.19.21m-.14.43a.68.68,0,0,1-.36-.64.62.62,0,0,1,0-.23.85.85,0,0,1,.14-.29.91.91,0,0,0,.13-.2.24.24,0,0,1,.23-.15.42.42,0,0,1,.34.17,1,1,0,0,1,.22.43.63.63,0,0,1,0,.19,1,1,0,0,1-.33.69.33.33,0,0,1-.24.08.39.39,0,0,1-.2-.05" transform="translate(-0.08 -0.08)"/>
          <path class="cls-12" d="M36.82,14.39a1.64,1.64,0,0,0-.07-.23.65.65,0,0,1-.06-.23.21.21,0,0,1,.08-.17.23.23,0,0,1,.16-.08.26.26,0,0,1,.2.11.44.44,0,0,1,.08.25v.06a.54.54,0,0,0,.28-.18.36.36,0,0,1,.26-.16h.09c.12.05.19.1.19.15A.13.13,0,0,1,38,14a1.38,1.38,0,0,1-.3.3,1.79,1.79,0,0,0-.31.32.39.39,0,0,0,0,.15.24.24,0,0,1,0,.15.3.3,0,0,0,0,.1.27.27,0,0,0,.07.18.28.28,0,0,1,.06.18.36.36,0,0,1-.1.26.22.22,0,0,1-.2.1.22.22,0,0,1-.18-.08.21.21,0,0,1-.06-.19,7.64,7.64,0,0,0-.06-1.07" transform="translate(-0.08 -0.08)"/>
          <path class="cls-12" d="M38.52,13.32a.85.85,0,0,1,.62-.26.42.42,0,0,1,.45.32.15.15,0,0,1,0,.11.13.13,0,0,1-.1,0l-.19,0-.19,0-.15,0a.56.56,0,0,0-.38.58,1.3,1.3,0,0,0,.13.56l.34-.14a1,1,0,0,1,.35-.1h.06c.07,0,.1,0,.1.13a.13.13,0,0,1,0,.06c0,.07-.14.13-.35.21s-.32.13-.32.17a.32.32,0,0,0,.1.26,1.13,1.13,0,0,1,.17.26,0,0,0,0,1,0,0,.09.09,0,0,1-.07.09.4.4,0,0,1-.15,0h-.08a.63.63,0,0,1-.22-.27.69.69,0,0,0-.2-.25h-.24s0,0-.06-.05a.18.18,0,0,1,0-.1.35.35,0,0,1,.12-.09s.08-.07.07-.11a2.28,2.28,0,0,0-.05-.34,2.06,2.06,0,0,1,0-.35,1,1,0,0,1,.35-.72" transform="translate(-0.08 -0.08)"/>
        </g>
      </g>
    </g>
  </g>
</svg>
